<svg xmlns="http://www.w3.org/2000/svg" width="151.29" height="40" viewBox="0 0 151.29 40"><path d="M141.761,0H9.535C9.168,0,8.806,0,8.44,0c-.306,0-.61.008-.919.013a13.215,13.215,0,0,0-2,.177,6.665,6.665,0,0,0-1.9.627A6.438,6.438,0,0,0,2,2,6.258,6.258,0,0,0,.819,3.618a6.6,6.6,0,0,0-.625,1.9,12.993,12.993,0,0,0-.179,2C.006,7.83,0,8.138,0,8.444V31.559c0,.31.006.611.015.922a12.993,12.993,0,0,0,.179,2,6.588,6.588,0,0,0,.625,1.9A6.208,6.208,0,0,0,2,38,6.274,6.274,0,0,0,3.616,39.18a6.7,6.7,0,0,0,1.9.631,13.455,13.455,0,0,0,2,.177c.309.007.613.011.919.011.366,0,.728,0,1.095,0H141.761c.359,0,.725,0,1.084,0,.3,0,.617,0,.922-.011a13.279,13.279,0,0,0,2-.177,6.8,6.8,0,0,0,1.908-.631A6.277,6.277,0,0,0,149.292,38a6.4,6.4,0,0,0,1.182-1.614,6.6,6.6,0,0,0,.619-1.9,13.506,13.506,0,0,0,.186-2c0-.311,0-.611,0-.922.008-.363.008-.725.008-1.094V9.536c0-.366,0-.729-.008-1.092,0-.307,0-.614,0-.921a13.505,13.505,0,0,0-.186-2,6.617,6.617,0,0,0-.619-1.9,6.466,6.466,0,0,0-2.8-2.8,6.768,6.768,0,0,0-1.908-.627,13.044,13.044,0,0,0-2-.177c-.3,0-.617-.011-.922-.013-.359,0-.725,0-1.084,0Z" fill="#a6a6a6"/><path d="M8.445,39.125c-.3,0-.6,0-.9-.011a12.688,12.688,0,0,1-1.869-.163A5.884,5.884,0,0,1,4.015,38.4a5.406,5.406,0,0,1-1.4-1.017A5.321,5.321,0,0,1,1.6,35.99a5.722,5.722,0,0,1-.543-1.657,12.413,12.413,0,0,1-.167-1.875c-.006-.211-.015-.913-.015-.913V8.444s.009-.691.015-.895a12.37,12.37,0,0,1,.166-1.872A5.755,5.755,0,0,1,1.6,4.016a5.373,5.373,0,0,1,1.015-1.4A5.565,5.565,0,0,1,4.014,1.6a5.823,5.823,0,0,1,1.653-.544A12.586,12.586,0,0,1,7.543.887l.9-.012H142.84l.913.013a12.385,12.385,0,0,1,1.858.163,5.938,5.938,0,0,1,1.671.548,5.594,5.594,0,0,1,2.415,2.42,5.763,5.763,0,0,1,.535,1.649,12.994,12.994,0,0,1,.174,1.887c0,.283,0,.587,0,.89.008.375.008.732.008,1.092V30.465c0,.363,0,.718-.008,1.075,0,.325,0,.623,0,.93a12.731,12.731,0,0,1-.171,1.854,5.739,5.739,0,0,1-.54,1.67,5.481,5.481,0,0,1-1.016,1.386,5.413,5.413,0,0,1-1.4,1.022,5.862,5.862,0,0,1-1.668.55,12.542,12.542,0,0,1-1.869.163c-.293.007-.6.011-.9.011l-1.084,0Z"/><path d="M24.769,20.3a4.949,4.949,0,0,1,2.357-4.152,5.066,5.066,0,0,0-3.991-2.158c-1.679-.176-3.307,1-4.163,1-.872,0-2.19-.987-3.608-.958a5.315,5.315,0,0,0-4.473,2.728c-1.934,3.348-.491,8.269,1.361,10.976.927,1.325,2.01,2.806,3.428,2.753,1.387-.058,1.905-.884,3.579-.884,1.659,0,2.145.884,3.591.851,1.488-.024,2.426-1.331,3.321-2.669A10.962,10.962,0,0,0,27.688,24.7,4.782,4.782,0,0,1,24.769,20.3Z" fill="#fff"/><path d="M22.037,12.211A4.872,4.872,0,0,0,23.152,8.72a4.957,4.957,0,0,0-3.208,1.66A4.636,4.636,0,0,0,18.8,13.741,4.1,4.1,0,0,0,22.037,12.211Z" fill="#fff"/><path d="M35.58,24.483a.552.552,0,1,1,.158.4.554.554,0,0,1-.158-.4Zm.091,7.087V25.6H36.6V31.57Z" fill="#fff"/><path d="M38.113,27.067h.855v.715h.066a1.348,1.348,0,0,1,1.344-.8,1.465,1.465,0,0,1,1.559,1.675V31.57h-.889V28.878c0-.724-.314-1.083-.972-1.083A1.033,1.033,0,0,0,39,28.936V31.57h-.889Z" fill="#fff"/><path d="M43.089,29.316c0-1.423.731-2.324,1.869-2.324a1.485,1.485,0,0,1,1.381.79h.066V25.31h.889V31.57h-.852v-.712h-.07a1.563,1.563,0,0,1-1.414.786C43.813,31.645,43.089,30.743,43.089,29.316Zm.918,0c0,.955.45,1.53,1.2,1.53s1.212-.583,1.212-1.526-.468-1.529-1.212-1.529-1.2.578-1.2,1.525Z" fill="#fff"/><path d="M48.636,25.735a.576.576,0,1,1,.575.542.547.547,0,0,1-.575-.542Zm.132,1.332h.886v4.5h-.886Z" fill="#fff"/><path d="M51.087,27.067h.855v.69h.066a1.221,1.221,0,0,1,1.216-.766,1.9,1.9,0,0,1,.4.037v.877a2.47,2.47,0,0,0-.5-.054,1.055,1.055,0,0,0-1.149,1.059V31.57h-.889Z" fill="#fff"/><path d="M54.554,25.735a.576.576,0,1,1,.575.542.547.547,0,0,1-.575-.542Zm.132,1.332h.886v4.5h-.886Z" fill="#fff"/><path d="M57,27.067h.855v.715h.066a1.348,1.348,0,0,1,1.344-.8,1.465,1.465,0,0,1,1.559,1.675V31.57H59.94V28.878c0-.724-.314-1.083-.972-1.083a1.033,1.033,0,0,0-1.075,1.141V31.57H57Z" fill="#fff"/><path d="M42.3,17.477H37.571l-1.137,3.356h-2L38.913,8.415H41L45.48,20.833H43.44Zm-4.243-1.549h3.752l-1.85-5.447h-.052Z" fill="#fff"/><path d="M55.162,16.307c0,2.813-1.506,4.621-3.778,4.621a3.069,3.069,0,0,1-2.849-1.584h-.043v4.484H46.634V11.78h1.8v1.506h.034a3.212,3.212,0,0,1,2.883-1.6C53.647,11.685,55.162,13.5,55.162,16.307Zm-1.91,0c0-1.833-.947-3.038-2.393-3.038-1.42,0-2.375,1.23-2.375,3.038,0,1.824.955,3.046,2.375,3.046,1.445,0,2.393-1.2,2.393-3.046Z" fill="#fff"/><path d="M65.126,16.307c0,2.813-1.505,4.621-3.778,4.621A3.069,3.069,0,0,1,58.5,19.344h-.043v4.484H56.6V11.78h1.8v1.506h.034a3.212,3.212,0,0,1,2.883-1.6C63.612,11.685,65.126,13.5,65.126,16.307Zm-1.91,0c0-1.833-.947-3.038-2.393-3.038-1.42,0-2.375,1.23-2.375,3.038,0,1.824.955,3.046,2.375,3.046,1.445,0,2.393-1.2,2.393-3.046Z" fill="#fff"/><path d="M71.712,17.374c.138,1.231,1.334,2.04,2.969,2.04,1.566,0,2.693-.809,2.693-1.919,0-.964-.68-1.541-2.289-1.937l-1.609-.388c-2.28-.551-3.339-1.617-3.339-3.348,0-2.143,1.867-3.614,4.519-3.614,2.624,0,4.423,1.472,4.483,3.614H77.263c-.112-1.239-1.137-1.987-2.634-1.987s-2.521.757-2.521,1.858c0,.878.654,1.395,2.255,1.79l1.368.336c2.548.6,3.606,1.626,3.606,3.442,0,2.323-1.851,3.778-4.794,3.778-2.754,0-4.613-1.421-4.733-3.667Z" fill="#fff"/><path d="M83.348,9.637V11.78H85.07v1.472H83.348v4.991c0,.775.345,1.137,1.1,1.137a5.808,5.808,0,0,0,.611-.043V20.8a5.1,5.1,0,0,1-1.032.086c-1.833,0-2.548-.688-2.548-2.444V13.251H80.165V11.78h1.316V9.637Z" fill="#fff"/><path d="M86.067,16.307c0-2.849,1.678-4.639,4.294-4.639s4.295,1.79,4.295,4.639-1.661,4.639-4.295,4.639S86.067,19.164,86.067,16.307Zm6.7,0c0-1.954-.9-3.107-2.4-3.107s-2.4,1.162-2.4,3.107c0,1.962.895,3.106,2.4,3.106s2.4-1.145,2.4-3.106Z" fill="#fff"/><path d="M96.188,11.78H97.96v1.541H98a2.159,2.159,0,0,1,2.178-1.636,2.866,2.866,0,0,1,.637.069v1.738a2.6,2.6,0,0,0-.835-.112,1.873,1.873,0,0,0-1.937,2.083v5.37H96.188Z" fill="#fff"/><path d="M109.386,18.174c-.25,1.644-1.851,2.771-3.9,2.771-2.634,0-4.269-1.765-4.269-4.6s1.644-4.682,4.19-4.682c2.5,0,4.08,1.721,4.08,4.466v.637H103.1v.112a2.358,2.358,0,0,0,2.436,2.564,2.048,2.048,0,0,0,2.091-1.273Zm-6.282-2.7h4.526a2.177,2.177,0,0,0-2.221-2.3,2.292,2.292,0,0,0-2.306,2.3Z" fill="#fff"/><path d="M110.738,12.959l1.016-4.544h1.807l-1.23,4.544Z" fill="#fff"/><path d="M113.479,16.307c0-2.8,1.54-4.622,3.786-4.622a3.054,3.054,0,0,1,2.84,1.6h.035V8.416h1.867V20.834H120.2v-1.54h-.034a3.088,3.088,0,0,1-2.883,1.635C115.019,20.928,113.479,19.1,113.479,16.307Zm1.9,0c0,1.858.947,3.046,2.393,3.046,1.429,0,2.384-1.205,2.384-3.046,0-1.825-.955-3.038-2.384-3.038-1.445,0-2.393,1.2-2.393,3.038Z" fill="#fff"/><path d="M123.645,18.26c0-1.583,1.213-2.539,3.364-2.668l2.479-.138v-.688c0-1.007-.662-1.575-1.789-1.575a1.731,1.731,0,0,0-1.9,1.274h-1.738c.052-1.636,1.574-2.8,3.691-2.8,2.16,0,3.589,1.179,3.589,2.96v6.205h-1.781V19.344h-.043a3.237,3.237,0,0,1-2.857,1.645,2.744,2.744,0,0,1-3.012-2.729Zm5.843-.817v-.7l-2.229.138c-1.11.069-1.738.551-1.738,1.325,0,.792.654,1.309,1.652,1.309a2.17,2.17,0,0,0,2.315-2.074Z" fill="#fff"/><path d="M133.232,11.78H135v1.541h.043a2.893,2.893,0,0,1,2.849-1.644c2,0,3.142,1.282,3.142,3.355v5.8h-1.867V15.394c0-1.359-.629-2.116-1.937-2.116a2.1,2.1,0,0,0-2.144,2.341v5.215h-1.858Z" fill="#fff"/></svg>