<svg xmlns="http://www.w3.org/2000/svg" xmlns:xlink="http://www.w3.org/1999/xlink" width="151.165" height="40" viewBox="0 0 151.165 40"><defs><linearGradient id="a" x1="0.915" y1="1.03" x2="-0.383" y2="0.361" gradientUnits="objectBoundingBox"><stop offset="0" stop-color="#00a0ff"/><stop offset="0.007" stop-color="#00a1ff"/><stop offset="0.26" stop-color="#00beff"/><stop offset="0.512" stop-color="#00d2ff"/><stop offset="0.76" stop-color="#00dfff"/><stop offset="1" stop-color="#00e3ff"/></linearGradient><linearGradient id="b" x1="1.076" y1="0.733" x2="-1.305" y2="0.733" gradientUnits="objectBoundingBox"><stop offset="0" stop-color="#ffe000"/><stop offset="0.409" stop-color="#ffbd00"/><stop offset="0.775" stop-color="orange"/><stop offset="1" stop-color="#ff9c00"/></linearGradient><linearGradient id="c" x1="0.862" y1="-0.023" x2="-0.501" y2="-1.793" gradientUnits="objectBoundingBox"><stop offset="0" stop-color="#ff3a44"/><stop offset="1" stop-color="#c31162"/></linearGradient><linearGradient id="d" x1="-0.188" y1="2.697" x2="0.421" y2="1.907" gradientUnits="objectBoundingBox"><stop offset="0" stop-color="#32a071"/><stop offset="0.068" stop-color="#2da771"/><stop offset="0.476" stop-color="#15cf74"/><stop offset="0.801" stop-color="#06e775"/><stop offset="1" stop-color="#00f076"/></linearGradient></defs><g transform="translate(-10 -10)"><rect width="151" height="40" rx="5" transform="translate(10 10)"/><g transform="translate(10 10)"><path d="M155.566,10.8a4.478,4.478,0,0,1,4.7,4.2V45a4.478,4.478,0,0,1-4.7,4.2H15.6A4.478,4.478,0,0,1,10.9,45V15a4.478,4.478,0,0,1,4.7-4.2H155.566m0-.8H15.6c-3.079,0-5.6,2.25-5.6,5V45c0,2.75,2.519,5,5.6,5H155.566c3.079,0,5.6-2.25,5.6-5V15c0-2.75-2.519-5-5.6-5Z" transform="translate(-10 -10)" fill="#a6a6a6"/></g><path d="M74.725,22.79a3.718,3.718,0,1,0,3.731,3.718A3.664,3.664,0,0,0,74.725,22.79Zm0,5.971a2.259,2.259,0,1,1,2.1-2.253A2.151,2.151,0,0,1,74.725,28.761ZM66.584,22.79a3.718,3.718,0,1,0,3.731,3.718A3.665,3.665,0,0,0,66.584,22.79Zm0,5.971a2.259,2.259,0,1,1,2.1-2.253A2.15,2.15,0,0,1,66.584,28.761ZM56.9,23.931v1.577h3.774a3.288,3.288,0,0,1-.859,1.985A3.86,3.86,0,0,1,56.9,28.648a4.2,4.2,0,0,1,0-8.393,4.023,4.023,0,0,1,2.845,1.127l1.112-1.112A5.5,5.5,0,0,0,56.9,18.678a5.774,5.774,0,1,0,0,11.547,5.278,5.278,0,0,0,4.027-1.619,5.7,5.7,0,0,0,1.282-4.675Zm39.6,1.225a3.456,3.456,0,0,0-3.183-2.366,3.533,3.533,0,0,0-3.506,3.718A3.637,3.637,0,0,0,93.5,30.225a3.7,3.7,0,0,0,3.1-1.647l-1.267-.845A2.123,2.123,0,0,1,93.5,28.761a1.892,1.892,0,0,1-1.8-1.127l4.972-2.056ZM91.434,26.4a2.04,2.04,0,0,1,1.943-2.169,1.439,1.439,0,0,1,1.38.789ZM87.392,30h1.634V19.073H87.392Zm-2.675-6.379H84.66A2.574,2.574,0,0,0,82.7,22.79a3.721,3.721,0,0,0,0,7.435,2.535,2.535,0,0,0,1.957-.844h.057v.535c0,1.422-.761,2.182-1.986,2.182a2.058,2.058,0,0,1-1.873-1.323l-1.422.591a3.542,3.542,0,0,0,3.3,2.2c1.916,0,3.535-1.127,3.535-3.873V23.015H84.717Zm-1.873,5.14a2.261,2.261,0,0,1,0-4.506,2.094,2.094,0,0,1,1.985,2.267A2.078,2.078,0,0,1,82.844,28.761Zm21.311-9.688h-3.908V30h1.631V25.86h2.277a3.4,3.4,0,1,0,0-6.787Zm.042,5.266h-2.319V20.594H104.2a1.873,1.873,0,1,1,0,3.745Zm10.08-1.569a3.062,3.062,0,0,0-2.91,1.673l1.448.6a1.546,1.546,0,0,1,1.49-.8,1.57,1.57,0,0,1,1.715,1.406v.112a3.617,3.617,0,0,0-1.7-.421c-1.56,0-3.149.857-3.149,2.46a2.524,2.524,0,0,0,2.713,2.4,2.3,2.3,0,0,0,2.081-1.069h.056v.844H117.6V25.793C117.6,23.852,116.147,22.77,114.277,22.77Zm-.2,5.989c-.534,0-1.279-.267-1.279-.928,0-.843.928-1.167,1.729-1.167a2.9,2.9,0,0,1,1.49.366A1.977,1.977,0,0,1,114.08,28.759Zm9.25-5.75-1.869,4.738H121.4l-1.941-4.738h-1.757l2.91,6.621-1.659,3.684h1.7l4.485-10.3ZM108.64,30h1.63V19.073h-1.63Z" fill="#fff"/><path d="M20.435,17.538a2.007,2.007,0,0,0-.462,1.405V41.059a2.005,2.005,0,0,0,.462,1.405l.074.072L32.9,30.147v-.292L20.509,17.465Z" fill="url(#a)"/><path d="M37.028,34.279,32.9,30.147v-.292l4.131-4.131.093.054,4.893,2.78c1.4.794,1.4,2.093,0,2.887l-4.893,2.78Z" fill="url(#b)"/><path d="M37.122,34.225,32.9,30,20.435,42.464a1.627,1.627,0,0,0,2.079.061l14.608-8.3" fill="url(#c)"/><path d="M37.122,25.777l-14.608-8.3a1.627,1.627,0,0,0-2.079.061L32.9,30Z" fill="url(#d)"/><path d="M37.029,34.132,22.514,42.379a1.665,1.665,0,0,1-2,.011h0l-.075.074h0l.074.073h0a1.665,1.665,0,0,0,2-.011l14.608-8.3Z" opacity="0.2" style="isolation:isolate"/><path d="M20.435,42.318a2.007,2.007,0,0,1-.462-1.405v.146a2.005,2.005,0,0,0,.462,1.405l.075-.074Z" opacity="0.12" style="isolation:isolate"/><path d="M42.015,31.3l-4.986,2.833.093.093,4.893-2.78A1.755,1.755,0,0,0,43.063,30h0A1.861,1.861,0,0,1,42.015,31.3Z" opacity="0.12" style="isolation:isolate"/><path d="M22.514,17.623l19.5,11.08A1.861,1.861,0,0,1,43.063,30h0a1.753,1.753,0,0,0-1.048-1.444l-19.5-11.08c-1.4-.794-2.541-.134-2.541,1.466v.147C19.973,17.489,21.116,16.829,22.514,17.623Z" fill="#fff" opacity="0.25" style="isolation:isolate"/><path d="M51.816,38.853H51.1V36.932h.714Z" fill="#fff" stroke="#fff" stroke-miterlimit="10" stroke-width="0.2"/><path d="M53.088,43.018V36.932h1.861a3.027,3.027,0,0,1,2.244.845,3.291,3.291,0,0,1,0,4.4,3.024,3.024,0,0,1-2.244.846Zm.781-.748h1.08a2.282,2.282,0,0,0,1.67-.6,2.3,2.3,0,0,0-1.67-3.986h-1.08Z" fill="#fff" stroke="#fff" stroke-miterlimit="10" stroke-width="0.2"/><path d="M62.675,37.68H59.9v1.929h2.5v.732H59.9V42.27h2.772v.748H59.122V36.932h3.553Z" fill="#fff" stroke="#fff" stroke-miterlimit="10" stroke-width="0.2"/><path d="M63.79,43.018V36.932h.952L67.7,41.666h.033L67.7,40.494V36.932h.781v6.086h-.815l-3.1-4.964h-.033l.033,1.173v3.791Z" fill="#fff" stroke="#fff" stroke-miterlimit="10" stroke-width="0.2"/><path d="M71.065,43.018l2.3-6.086h.884l2.295,6.086h-.867l-.587-1.649H72.528l-.6,1.649Zm1.726-2.379h2.024l-1-2.746h-.034Z" fill="#fff" stroke="#fff" stroke-miterlimit="10" stroke-width="0.2"/><path d="M77.334,43.018V36.932h.781V42.27h2.636v.748Z" fill="#fff" stroke="#fff" stroke-miterlimit="10" stroke-width="0.2"/><path d="M81.6,43.018V36.932h.781v6.086Z" fill="#fff" stroke="#fff" stroke-miterlimit="10" stroke-width="0.2"/><path d="M83.781,43.018V36.932h.952l2.958,4.734h.034l-.034-1.172V36.932h.782v6.086h-.816l-3.094-4.964h-.034l.034,1.173v3.791Z" fill="#fff" stroke="#fff" stroke-miterlimit="10" stroke-width="0.2"/></g></svg>